<?xml version="1.0" encoding="UTF-8" standalone="no"?>
<!-- Created with Inkscape (http://www.inkscape.org/) -->

<svg
   width="128"
   height="128"
   viewBox="0 0 33.866664 33.866666"
   version="1.1"
   id="svg1"
   inkscape:version="1.4 (86a8ad7, 2024-10-11)"
   xml:space="preserve"
   sodipodi:docname="icon.svg"
   xmlns:inkscape="http://www.inkscape.org/namespaces/inkscape"
   xmlns:sodipodi="http://sodipodi.sourceforge.net/DTD/sodipodi-0.dtd"
   xmlns:xlink="http://www.w3.org/1999/xlink"
   xmlns="http://www.w3.org/2000/svg"
   xmlns:svg="http://www.w3.org/2000/svg"><sodipodi:namedview
     id="namedview1"
     pagecolor="#505050"
     bordercolor="#ffffff"
     borderopacity="1"
     inkscape:showpageshadow="0"
     inkscape:pageopacity="0"
     inkscape:pagecheckerboard="true"
     inkscape:deskcolor="#505050"
     inkscape:document-units="px"
     labelstyle="below"
     inkscape:clip-to-page="false"
     shape-rendering="auto"
     inkscape:zoom="4"
     inkscape:cx="32.375"
     inkscape:cy="91.875"
     inkscape:current-layer="layer1" /><defs
     id="defs1"><linearGradient
       id="linearGradient8"
       inkscape:collect="always"><stop
         style="stop-color:#b7603f;stop-opacity:1;"
         offset="0.00151976"
         id="stop8" /><stop
         style="stop-color:#994831;stop-opacity:1;"
         offset="0.56231004"
         id="stop9" /></linearGradient><linearGradient
       inkscape:collect="always"
       xlink:href="#linearGradient8"
       id="linearGradient9"
       x1="60.652679"
       y1="86.235916"
       x2="125.92207"
       y2="110.42422"
       gradientUnits="userSpaceOnUse" /></defs><g
     inkscape:label="Слой 1"
     inkscape:groupmode="layer"
     id="layer1"><path
       style="fill:#9c4d35;fill-rule:evenodd;stroke:none;stroke-width:1.5;stroke-linecap:square;stroke-linejoin:round;paint-order:stroke fill markers;fill-opacity:1"
       d="m 14.051036,102.26993 -0.594511,-0.51973 0.347602,-5.620268 C 14.555162,83.986665 15.372525,66.318862 15.243313,65.021038 14.970311,62.278962 13.86799,60.748066 10.124899,57.912619 7.7144558,56.086675 6.3272508,54.545165 5.3321413,52.586747 3.9353259,49.837756 3.9081971,49.226096 4.4434877,32.550696 4.8755047,19.092477 4.8512412,19.320164 5.9129861,18.761031 c 0.5422562,-0.285561 1.3758036,-0.03737 1.7366316,0.517083 0.2598948,0.399359 0.4125613,2.947893 0.6758367,11.282071 0.3568737,11.297101 0.5126983,13.128801 1.1770402,13.835962 0.5426824,0.57766 1.6621694,0.755365 2.2821704,0.362272 0.581524,-0.368698 0.712581,-2.023227 0.966982,-12.207723 0.304475,-12.189087 0.363173,-12.997732 0.988914,-13.623473 0.495211,-0.495211 1.433674,-0.441059 1.995084,0.115122 0.314411,0.311482 0.657974,7.047355 0.919655,18.030677 0.146632,6.154468 0.200198,6.797164 0.609928,7.318052 0.48515,0.616768 1.697882,0.778334 2.523922,0.336251 0.623506,-0.333689 0.662388,-0.83477 1.049876,-13.530166 0.20435,-6.695195 0.444604,-11.492045 0.589113,-11.762061 0.40426,-0.755368 1.087149,-1.000331 1.815492,-0.651245 0.882343,0.422896 0.917537,0.809591 1.214203,13.341116 0.25142,10.620319 0.335832,11.981565 0.777891,12.544421 0.41255,0.525284 1.731166,0.352011 2.239544,-0.294289 0.605731,-0.77006 0.672416,-1.611889 1.109778,-14.00977 0.199156,-5.645472 0.45947,-10.52059 0.578475,-10.833596 0.119004,-0.313005 0.484982,-0.691488 0.813282,-0.841072 0.502703,-0.229046 0.697487,-0.197019 1.234135,0.202917 0.796141,0.59332 0.844642,1.113045 1.208889,12.954583 0.3457,11.238535 0.347271,17.261537 0.0048,18.533253 -0.75139,2.790454 -2.572041,5.26164 -5.479544,7.437436 -2.723263,2.037922 -4.194429,3.667536 -4.73092,5.240454 -0.477734,1.400651 -0.502598,4.735583 -0.08956,12.01281 l 0.241591,4.256571 -1.386352,3.018042 c -2.558814,5.570477 -3.918794,10.183417 -4.581335,15.539535 -0.541637,4.378706 -0.533831,4.347906 -1.176152,4.640566 -0.487076,0.22193 -0.669336,0.18195 -1.171341,-0.2569 z"
       id="path2"
       transform="scale(0.26458332)" /><path
       style="fill:#9c4d35;fill-opacity:1;fill-rule:evenodd;stroke:none;stroke-width:1.5;stroke-linecap:square;stroke-linejoin:round;paint-order:stroke fill markers"
       d="m 113.72042,98.516741 c -0.0577,-1.397486 -1.05235,-5.569752 -2.04835,-8.592517 -0.6588,-1.999409 -1.89948,-4.882895 -3.37549,-7.845039 l -2.33382,-4.683637 0.25022,-6.439802 c 0.13762,-3.54189 0.18301,-7.019389 0.10087,-7.727776 -0.27834,-2.400445 -0.92167,-3.366098 -4.84812,-7.277165 -5.051745,-5.031944 -6.252485,-7.205937 -6.719117,-12.165239 -0.528123,-5.612822 0.736399,-12.356365 3.235384,-17.253916 2.117513,-4.149931 4.368993,-6.529773 7.645423,-8.081285 1.4424,-0.683033 1.85121,-0.769951 3.62139,-0.769951 1.77195,0 2.16535,0.08384 3.51266,0.748655 3.97852,1.963143 7.42342,6.35059 9.20196,11.719693 1.43536,4.333084 1.87515,6.93355 1.89139,11.183596 0.0188,4.924286 -0.62606,7.313612 -2.85528,10.578971 -0.87701,1.284655 -1.72994,2.167237 -5.83884,6.041859 -2.66133,2.5096 -2.7238,2.763913 -2.56097,10.42669 0.0725,3.41314 0.40587,11.568239 0.74075,18.122446 0.33489,6.554204 0.56349,12.086651 0.508,12.294327 -0.0555,0.207674 -0.11312,0.08171 -0.12806,-0.27991 z"
       id="path3"
       transform="scale(0.26458332)" /><path
       style="fill:#9c4d35;fill-opacity:1;fill-rule:evenodd;stroke:none;stroke-width:1.5;stroke-linecap:square;stroke-linejoin:round;paint-order:stroke fill markers"
       d="m 53.489846,39.051931 c -1.008339,-0.667761 -2.229925,-3.038875 -2.604481,-5.055337 -0.378777,-2.03918 -0.05191,-3.413069 1.683595,-7.076555 1.728914,-3.649567 1.82811,-4.693535 0.691942,-7.28219 -0.760871,-1.733576 -0.798568,-2.232256 -0.197362,-2.610808 0.585606,-0.368728 1.549583,5.67e-4 2.510948,0.961932 1.276052,1.276052 1.963204,2.881675 2.098422,4.90325 0.130533,1.951543 -0.24468,3.222018 -1.969287,6.668028 -0.992796,1.983747 -1.023138,2.110349 -1.023138,4.269003 0,1.480725 0.123662,2.53369 0.369809,3.148872 0.454517,1.135949 0.368275,1.857973 -0.272471,2.281146 -0.430153,0.284089 -0.583076,0.259472 -1.287977,-0.207341 z"
       id="path4"
       transform="scale(0.26458332)" /><path
       style="fill:#9c4d35;fill-opacity:1;fill-rule:evenodd;stroke:none;stroke-width:1.5;stroke-linecap:square;stroke-linejoin:round;paint-order:stroke fill markers"
       d="m 63.794414,38.808932 c -1.729481,-1.165497 -3.026617,-4.039359 -3.204295,-7.099254 -0.133827,-2.304724 0.17331,-3.477221 1.912498,-7.300971 1.72484,-3.792205 1.880324,-4.341561 1.871173,-6.611204 -0.0088,-2.193078 -0.4232,-3.505321 -1.848615,-5.854442 -1.022588,-1.685251 -1.196096,-2.3999417 -0.702482,-2.8935564 0.692282,-0.6922813 1.323183,-0.44842 2.826825,1.0926484 2.981326,3.055532 4.119415,5.505915 4.153759,8.943327 0.02447,2.44895 -0.205176,3.256247 -2.198275,7.727863 -0.746304,1.67437 -1.483549,3.553129 -1.638322,4.175018 -0.36314,1.459128 -0.156607,3.90901 0.468107,5.552666 0.615118,1.618409 0.609965,1.985061 -0.03423,2.436277 -0.663965,0.465058 -0.666601,0.464781 -1.606138,-0.168372 z"
       id="path5"
       transform="scale(0.26458332)" /><path
       style="fill:#9c4d35;fill-opacity:1;fill-rule:evenodd;stroke:none;stroke-width:1.5;stroke-linecap:square;stroke-linejoin:round;paint-order:stroke fill markers"
       d="m 73.929596,38.463682 c -1.396953,-1.480908 -2.003221,-3.116646 -2.11135,-5.696514 l -0.09398,-2.242393 1.710004,-3.260782 c 1.576252,-3.005733 1.709772,-3.370986 1.707035,-4.669723 -0.0022,-1.026342 -0.173403,-1.78122 -0.630608,-2.779886 -0.693932,-1.515747 -0.76554,-2.019487 -0.346626,-2.438401 0.901851,-0.901852 2.656103,0.274317 3.871169,2.59549 0.557119,1.064281 0.640052,1.493033 0.643967,3.329205 l 0.0045,2.107599 -1.581443,3.278487 c -1.490484,3.089921 -1.5814,3.372813 -1.580699,4.918476 4.22e-4,0.908312 0.199743,2.335851 0.446781,3.199701 0.395355,1.382482 0.407151,1.61523 0.103811,2.048309 -0.507401,0.724416 -1.212687,0.596177 -2.142549,-0.389568 z"
       id="path6"
       transform="scale(0.26458332)" /><path
       style="fill:#9c4d35;fill-opacity:1;fill-rule:evenodd;stroke:none;stroke-width:1.5;stroke-linecap:square;stroke-linejoin:round;paint-order:stroke fill markers"
       d="m 23.417767,119.08134 c -0.128798,-0.043 -0.52204,-0.14155 -0.873872,-0.21907 -0.914976,-0.20162 -2.223603,-1.43309 -3.01725,-2.83935 l -0.683383,-1.21089 -2.630735,-0.11609 c -2.228547,-0.0983 -2.814638,-0.20929 -3.833649,-0.72566 -2.941818,-1.49073 -4.3097141,-4.94745 -2.6797316,-6.77176 l 0.6833066,-0.76477 54.802308,-0.0619 54.802309,-0.0619 0.65848,0.86371 c 0.86091,1.12922 0.86294,2.52898 0.006,4.2059 -1.22799,2.40335 -2.66306,3.13066 -6.52861,3.30875 l -2.74684,0.12656 -0.81276,1.31263 c -1.32177,2.13474 -1.95467,2.6074 -3.81168,2.8467 -1.45299,0.18723 -82.780453,0.29183 -83.334003,0.10718 z"
       id="path7"
       transform="scale(0.26458332)" /><path
       style="fill:url(#linearGradient9);fill-rule:evenodd;stroke:none;stroke-width:1.5;stroke-linecap:square;stroke-linejoin:round;paint-order:stroke fill markers"
       d="m 62.17417,56.578299 c 0,-0.952305 -0.06286,-1.047262 -1.134195,-1.713239 m 0,0 c -4.121332,-2.561961 -3.540068,-7.615661 1.122297,-9.757615 0.798993,-0.367068 1.534545,-0.489596 2.939119,-0.489596 2.129083,0 3.414713,0.461075 4.884881,1.751899 2.946262,2.586853 2.347404,6.970195 -1.196583,8.758372 -0.686288,0.346279 -0.761077,0.485934 -0.761077,1.421189 0,0.991646 0.03341,1.041964 0.761077,1.146281 0.418593,0.06001 2.00558,0.280174 3.526639,0.489258 11.514256,1.582741 21.786815,7.467762 28.915032,16.565066 5.2947,6.757297 9.32645,16.701874 10.23453,25.244172 0.1433,1.347944 0.10382,1.596134 -0.34455,2.166144 l -0.50639,0.64377 H 65.125214 19.635476 l -0.543451,-0.57848 c -0.502131,-0.5345 -0.531446,-0.7081 -0.385561,-2.283234 0.43839,-4.733358 2.408489,-11.714799 4.601613,-16.306735 6.255376,-13.097433 17.817964,-22.199291 31.718672,-24.968358 1.548325,-0.308432 3.447414,-0.624733 4.220201,-0.702892 3.035069,-0.306965 2.92722,-0.255901 2.92722,-1.386002"
       id="path8"
       transform="scale(0.26458332)"
       sodipodi:nodetypes="cccsssssssssscccsssssc" /><path
       style="fill:#e08b60;fill-opacity:1;fill-rule:evenodd;stroke:none;stroke-width:0.396875;stroke-linecap:square;stroke-linejoin:round;paint-order:stroke fill markers"
       d="m 9.1281242,22.981541 c 0,0 -0.318326,-0.08682 -0.248047,-0.479557 0.07028,-0.39274 0.5043625,-1.756998 1.2443698,-2.517675 0.740006,-0.760677 0.840161,-0.845877 1.335319,-1.169955 0.449779,-0.294378 1.459342,-0.686263 1.459342,-0.686263 0,0 0.401009,-0.177766 0.520899,0.132291 0.119889,0.31006 -0.310059,0.504362 -0.310059,0.504362 0,0 -1.608305,0.869828 -2.228288,1.521354 -0.249555,0.262252 -0.377715,0.450849 -0.533286,0.699315 -0.193186,0.308542 -0.33496,0.481793 -0.4919743,0.975003 -0.3513994,1.103807 -0.417546,1.083138 -0.7482755,1.021125 z"
       id="path9"
       sodipodi:nodetypes="cssacscsasc" /></g></svg>
